<?xml version="1.0" encoding="utf-8"?>
<!-- Generator: Adobe Illustrator 16.0.0, SVG Export Plug-In . SVG Version: 6.00 Build 0)  -->
<!DOCTYPE svg PUBLIC "-//W3C//DTD SVG 1.1//EN" "http://www.w3.org/Graphics/SVG/1.1/DTD/svg11.dtd">
<svg version="1.1"
	 id="svg3483" xmlns:svg="http://www.w3.org/2000/svg" xmlns:dc="http://purl.org/dc/elements/1.1/" xmlns:cc="http://creativecommons.org/ns#" xmlns:rdf="http://www.w3.org/1999/02/22-rdf-syntax-ns#"
	 xmlns="http://www.w3.org/2000/svg" xmlns:xlink="http://www.w3.org/1999/xlink" x="0px" y="0px" width="600px" height="600px"
	 viewBox="0 0 600 600" enable-background="new 0 0 600 600" xml:space="preserve">
<linearGradient id="path3226_1_" gradientUnits="userSpaceOnUse" x1="204.0776" y1="401.543" x2="204.0776" y2="393.2833" gradientTransform="matrix(2.6947 0 0 -2.5801 -280.4721 1580.149)">
	<stop  offset="0" style="stop-color:#FFB142"/>
	<stop  offset="1" style="stop-color:#C87600"/>
</linearGradient>
<path id="path3226" fill="url(#path3226_1_)" stroke="#000000" stroke-width="2.9633" stroke-linecap="round" stroke-linejoin="round" d="
	M291.012,541.811c0,19.235-9.65,34.829-21.557,34.829c-11.907,0-21.557-15.594-21.557-34.829c0-19.234,9.65-34.83,21.557-34.83
	C281.362,506.98,291.012,522.575,291.012,541.811z"/>
<linearGradient id="path3228_1_" gradientUnits="userSpaceOnUse" x1="204.0737" y1="401.543" x2="204.0737" y2="393.2833" gradientTransform="matrix(2.6947 0 0 -2.5801 -332.6616 1580.149)">
	<stop  offset="0" style="stop-color:#FFB142"/>
	<stop  offset="1" style="stop-color:#C87600"/>
</linearGradient>
<path id="path3228" fill="url(#path3228_1_)" stroke="#000000" stroke-width="2.9633" stroke-linecap="round" stroke-linejoin="round" d="
	M238.813,541.811c0,19.235-9.651,34.829-21.558,34.829c-11.907,0-21.558-15.594-21.558-34.829c0-19.234,9.651-34.83,21.558-34.83
	C229.162,506.98,238.813,522.575,238.813,541.811z"/>
<linearGradient id="path3230_1_" gradientUnits="userSpaceOnUse" x1="204.0781" y1="401.543" x2="204.0781" y2="393.2833" gradientTransform="matrix(2.6947 0 0 -2.5801 -306.9448 1580.149)">
	<stop  offset="0" style="stop-color:#FFB142"/>
	<stop  offset="1" style="stop-color:#C87600"/>
</linearGradient>
<path id="path3230" fill="url(#path3230_1_)" stroke="#000000" stroke-width="2.9633" stroke-linecap="round" stroke-linejoin="round" d="
	M264.542,541.811c0,19.235-9.651,34.829-21.557,34.829c-11.906,0-21.558-15.594-21.558-34.829c0-19.234,9.651-34.83,21.558-34.83
	C254.891,506.98,264.542,522.575,264.542,541.811z"/>
<linearGradient id="path3224_1_" gradientUnits="userSpaceOnUse" x1="204.0737" y1="401.543" x2="204.0737" y2="393.2833" gradientTransform="matrix(2.6947 0 0 -2.5801 -163.9917 1580.149)">
	<stop  offset="0" style="stop-color:#FFB142"/>
	<stop  offset="1" style="stop-color:#C87600"/>
</linearGradient>
<path id="path3224" fill="url(#path3224_1_)" stroke="#000000" stroke-width="2.9633" stroke-linecap="round" stroke-linejoin="round" d="
	M407.482,541.811c0,19.235-9.65,34.829-21.558,34.829s-21.558-15.594-21.558-34.829c0-19.234,9.649-34.83,21.558-34.83
	C397.831,506.98,407.482,522.575,407.482,541.811z"/>
<linearGradient id="path3220_1_" gradientUnits="userSpaceOnUse" x1="204.0796" y1="401.543" x2="204.0796" y2="393.2833" gradientTransform="matrix(2.6947 0 0 -2.5801 -216.1811 1580.149)">
	<stop  offset="0" style="stop-color:#FFB142"/>
	<stop  offset="1" style="stop-color:#C87600"/>
</linearGradient>
<path id="path3220" fill="url(#path3220_1_)" stroke="#000000" stroke-width="2.9633" stroke-linecap="round" stroke-linejoin="round" d="
	M355.31,541.811c0,19.235-9.649,34.829-21.558,34.829c-11.905,0-21.557-15.594-21.557-34.829c0-19.234,9.649-34.83,21.557-34.83
	S355.31,522.575,355.31,541.811z"/>
<linearGradient id="path3222_1_" gradientUnits="userSpaceOnUse" x1="204.0747" y1="401.543" x2="204.0747" y2="393.2833" gradientTransform="matrix(2.6947 0 0 -2.5801 -190.4643 1580.149)">
	<stop  offset="0" style="stop-color:#FFB142"/>
	<stop  offset="1" style="stop-color:#C87600"/>
</linearGradient>
<path id="path3222" fill="url(#path3222_1_)" stroke="#000000" stroke-width="2.9633" stroke-linecap="round" stroke-linejoin="round" d="
	M381.013,541.811c0,19.235-9.649,34.829-21.557,34.829s-21.559-15.594-21.559-34.829c0-19.234,9.65-34.83,21.559-34.83
	C371.361,506.98,381.013,522.575,381.013,541.811z"/>
<path id="path3250" fill-opacity="0.3137" d="M217.271,506.969c-8.784,0-16.309,8.518-19.666,20.706
	c28.697,7.676,60.229,12.153,93.365,12.765c-0.451-18.584-9.897-33.47-21.51-33.47c-4.993,0-9.581,2.766-13.236,7.375
	c-3.655-4.609-8.242-7.375-13.236-7.375c-4.819,0-9.268,2.579-12.858,6.902C226.537,509.549,222.089,506.97,217.271,506.969
	L217.271,506.969z M333.751,506.969c-11.582,0-21.014,14.812-21.51,33.328c33.101-1.064,64.466-6.025,92.938-14.135
	c-3.551-11.37-10.827-19.193-19.239-19.193c-4.992,0-9.581,2.766-13.235,7.375c-3.656-4.609-8.243-7.375-13.236-7.375
	c-4.818,0-9.268,2.579-12.858,6.902C343.018,509.548,338.568,506.969,333.751,506.969L333.751,506.969z"/>
<radialGradient id="path2385_1_" cx="41.6274" cy="402.6162" r="250.4572" fx="-83.1501" fy="414.3062" gradientTransform="matrix(0.5972 0.8021 -0.8021 0.5972 406.7939 -263.004)" gradientUnits="userSpaceOnUse">
	<stop  offset="0" style="stop-color:#FFFFFF"/>
	<stop  offset="1" style="stop-color:#333366"/>
</radialGradient>
<path id="path2385" fill="url(#path2385_1_)" stroke="#000000" stroke-width="2.9633" stroke-linecap="round" d="M447.012,475.67
	c-111.471,81.898-268.229,57.927-350.129-53.545c-81.161-110.468-58.44-265.658,50.982-348.222
	c110.417-83.315,267.469-61.344,350.783,49.074c83.313,110.418,61.345,267.468-49.073,350.785
	C448.725,474.403,447.87,475.039,447.012,475.67z"/>
<path id="path3167" fill="#777777" stroke="#000000" stroke-width="2.9633" stroke-linecap="round" stroke-linejoin="round" d="
	M422.517,400.656c-40.087-7.447-3.397,32.725-9.547,47.247c-24.3-11.947-15.04,27.607-26.029,38.598
	c-20.82-1.114-24.07,19.883-38.597,26.029c-17.551-9.736-30.492,9.548-47.248,9.548s-26.671-18.527-47.247-9.548
	c-14.524-6.146-17.774-26.386-38.597-26.029c-10.988-10.988-9.293-52.813-26.03-38.598c-6.146-14.523,22.222-57.72-9.547-47.247
	c0-16.756,33.655-47.85,9.547-47.247c6.147-14.522,36.977-25.339,26.03-38.597c21.978-21.979,52.332-35.577,85.844-35.577
	s63.866,13.598,85.842,35.577c-16.239,7.963,19.884,24.071,26.03,38.597C385.837,352.051,422.517,383.9,422.517,400.656z"/>
<path id="path3211" fill-opacity="0.3137" d="M519.997,158.091c2.996,15.479,4.585,31.444,4.585,47.793
	c0,5.644-0.199,11.231-0.567,16.782c-5.556-0.276-11.464,0.029-17.772,0.945c-53.273,11.344-30.52,78.157-44.393,148.062
	c-32.073,51.64-49.035,57.601-131.296,78.28c-18.138,4.178-37.026,6.386-56.426,6.386c-45.948,0-88.998-12.416-126.03-34.038
	c-35.821-83.869,12.219-174.973-50.914-190.701c-69.756-12.594-96.771,52.125-51.671,149.101
	c24.901,53.544,66.144,79.843,96.485,90.055c42.908,34.492,97.409,55.122,156.711,55.122c69.51,0,132.453-28.35,177.843-74.125
	c26.403-13.188,55.764-37.205,76.157-77.387c38.139-75.142,30.836-131.729-8.273-147.401c-4.795-24.41-13.107-47.563-24.438-68.877
	V158.091z"/>
<path fill="#FFFFFF" stroke="#000000" stroke-width="2.4098" stroke-linecap="round" d="M422.271,178.123
	c0,44.459-31.198,80.54-69.641,80.54c-22.57,0-42.67-3.715-55.39-23.025c-12.73,19.29-32.75,23.025-55.33,23.025
	c-38.44,0-69.64-36.079-69.64-80.54c0-44.47,31.199-80.54,69.64-80.54c22.58,0,42.6,12.479,55.33,31.77
	c12.72-19.3,32.831-31.77,55.39-31.77C391.071,97.583,422.271,133.653,422.271,178.123z"/>
<path id="path3407" fill-opacity="0.3137" d="M299.843,249.879c-14.05,0-29.322,15.623-28.71,25.488
	c0.611,9.867,25.046,50.98,30.543,50.98c5.499,0,26.878-40.291,26.271-51.801C327.333,263.036,309.006,249.057,299.843,249.879
	L299.843,249.879z"/>
<linearGradient id="path2391_1_" gradientUnits="userSpaceOnUse" x1="359.5762" y1="181.9756" x2="372.8065" y2="181.9756" gradientTransform="matrix(0.9704 0 0 -1.177 -55.9587 482.4465)">
	<stop  offset="0" style="stop-color:#FFB142"/>
	<stop  offset="1" style="stop-color:#C87600"/>
</linearGradient>
<path id="path2391" fill="url(#path2391_1_)" stroke="#000000" stroke-width="2.9633" d="M296.627,233.825
	c-14.05,0-29.323,14.078-28.71,22.969c0.611,8.891,25.046,45.938,30.543,45.938c5.498,0,26.878-36.308,26.269-46.681
	c-0.609-10.374-18.938-22.969-28.102-22.229V233.825z"/>
<path id="path2411" stroke="#000000" stroke-width="2.9633" stroke-linecap="round" d="M291.854,187.828
	c0,13.691-11.1,24.79-24.79,24.79c-13.691,0-24.79-11.099-24.79-24.79c0-13.691,11.099-24.79,24.79-24.79
	S291.854,174.136,291.854,187.828z"/>
<path id="path3285" fill="#777777" stroke="#000000" stroke-width="2.9633" stroke-linejoin="round" d="M278.653,88.841
	c-15.439-37.4-41.477-42.463-41.477-42.463s14.482,19.508,1.365,14.082c-20.311-8.403-84.89,17.93-84.89,17.93
	S239.214,58.473,278.653,88.841L278.653,88.841z"/>
<path id="path3301" stroke="#000000" stroke-width="2.9633" stroke-linecap="round" d="M354.62,187.828
	c0,13.691-11.101,24.79-24.79,24.79c-13.691,0-24.79-11.099-24.79-24.79c0-13.691,11.099-24.79,24.79-24.79
	S354.62,174.136,354.62,187.828z"/>
<path id="path3341" fill="#FFFFFF" d="M264.542,179.149c-0.003,3.551-2.885,6.426-6.436,6.423c-3.546-0.003-6.419-2.877-6.424-6.423
	c-0.003-3.551,2.872-6.432,6.424-6.436c3.551-0.004,6.432,2.872,6.436,6.423C264.542,179.141,264.542,179.145,264.542,179.149z"/>
<path id="path3343" fill="#FFFFFF" d="M327.309,179.149c-0.004,3.551-2.885,6.426-6.436,6.423c-3.546-0.003-6.42-2.877-6.424-6.423
	c-0.003-3.551,2.873-6.432,6.424-6.436s6.432,2.872,6.436,6.423C327.309,179.141,327.309,179.145,327.309,179.149z"/>
<path id="path3205" fill-opacity="0.3137" d="M18.807,264.505c-5.222,24.969-1.964,58.503,11.771,98.044
	c36.087,103.891,138.155,119.488,123.621,100.74c-6.216-8.02-11.376-16.148-15.601-24.299
	c-28.67-6.894-81.762-36.885-105.753-105.954c-8.893-25.603-13.393-48.677-14.039-68.536L18.807,264.505L18.807,264.505z
	 M126.638,274.102c-1.335,12.913-2.808,26.643-3.45,41.035C124.69,300.325,126.333,286.481,126.638,274.102z"/>
<path id="path3200-5" fill-opacity="0.3137" d="M460.855,258.251c-6.867,107.329,15.56,97.397,3.388,165.625
	c-16.677,93.47-7.742,63.838-29.136,65.967c6.946,10.913,15.157,26.625,47.489-76.269c25.629-81.562,14.716-139.915-19.565-157.032
	L460.855,258.251L460.855,258.251z"/>
<g id="layer1-9" transform="matrix(1.1453 -.55155 .55155 1.1453 -752.62 589.26)">
	<g id="g4649" transform="matrix(1.0539 0 0 1.0539 -.082210 306.16)">
		<g id="g3949" transform="translate(-39.991 -356.96)">
			<path id="path4554" d="M1011.851,332.421c3.505,2.84,4.223,7.886,1.473,11.28l-67.433,83.169c-2.75,3.392-7.838,3.73-11.34,0.891
				l-124.626-101.04c-3.503-2.839-4.223-7.887-1.474-11.279l67.435-83.171c2.75-3.393,7.839-3.73,11.341-0.891L1011.851,332.421
				L1011.851,332.421z"/>
			
				<linearGradient id="path4919_1_" gradientUnits="userSpaceOnUse" x1="1523.6256" y1="408.1602" x2="1446.3271" y2="544.4559" gradientTransform="matrix(-1.5148 -1.2282 -1.2282 1.5148 3771.3694 1595.6731)">
				<stop  offset="0" style="stop-color:#EFEED1"/>
				<stop  offset="0.5" style="stop-color:#FFFFFF"/>
				<stop  offset="1" style="stop-color:#FEFEFB"/>
			</linearGradient>
			
				<path id="path4919" fill="url(#path4919_1_)" stroke="#000000" stroke-width="3.273" stroke-linecap="round" stroke-linejoin="round" d="
				M1006.546,335.01c-9.521,0.883-71.616,4.243-75.308,4.856c-3.877,0.644-3.888,0.664-5.742,2.949
				c-1.852,2.286-1.872,2.298-1.7,6.227c0.154,3.503,8.431,56.792,10.42,71.546l6.064,4.916c1.652,1.338,4.393,0.717,6.102-1.391
				l64.42-79.455c1.71-2.109,1.683-4.834,0.032-6.174l-4.289-3.477L1006.546,335.01z"/>
			
				<linearGradient id="path4909_1_" gradientUnits="userSpaceOnUse" x1="1597.3401" y1="390.5987" x2="1588.3539" y2="665.5281" gradientTransform="matrix(-1.5148 -1.2282 -1.2282 1.5148 3771.3694 1595.6731)">
				<stop  offset="0" style="stop-color:#8E8E8E"/>
				<stop  offset="0.5" style="stop-color:#FFFFFF"/>
				<stop  offset="1" style="stop-color:#666666"/>
			</linearGradient>
			
				<path id="path4909" fill="url(#path4909_1_)" stroke="#000000" stroke-width="3.273" stroke-linecap="round" stroke-linejoin="round" d="
				M886.153,237.399c1.102,9.498,10.654,70.948,10.818,74.686c0.171,3.928,0.154,3.942-1.699,6.227
				c-1.853,2.287-1.862,2.308-5.742,2.948c-3.461,0.574-57.308,3.492-72.156,4.598l-6.065-4.918
				c-1.652-1.34-1.609-4.149,0.098-6.258l64.423-79.456c1.708-2.108,4.38-2.647,6.031-1.305L886.153,237.399L886.153,237.399z"/>
			
				<linearGradient id="path4917_1_" gradientUnits="userSpaceOnUse" x1="1574.8301" y1="403.3138" x2="1655.1119" y2="521.6606" gradientTransform="matrix(-1.5148 -1.2282 -1.2282 1.5148 3771.3694 1595.6731)">
				<stop  offset="0" style="stop-color:#EFEED1"/>
				<stop  offset="0.5189" style="stop-color:#FFFFFF"/>
				<stop  offset="1" style="stop-color:#FEFEFB"/>
			</linearGradient>
			
				<path id="path4917" fill="url(#path4917_1_)" stroke="#000000" stroke-width="3.273" stroke-linecap="round" stroke-linejoin="round" d="
				M886.153,237.399c1.102,9.498,10.654,70.948,10.818,74.686c0.171,3.928,0.154,3.942-1.699,6.227
				c-1.853,2.287-1.862,2.308-5.742,2.948c-3.461,0.574-57.309,3.493-72.156,4.598l-6.065-4.918
				c-1.652-1.34-1.609-4.149,0.098-6.258l64.423-79.456c1.708-2.108,4.38-2.647,6.031-1.305L886.153,237.399L886.153,237.399z"/>
			
				<linearGradient id="path4923_1_" gradientUnits="userSpaceOnUse" x1="1557.0729" y1="431.397" x2="1555.5699" y2="530.29" gradientTransform="matrix(-1.5148 -1.2282 -1.2282 1.5148 3771.3694 1595.6731)">
				<stop  offset="0" style="stop-color:#EFEED1"/>
				<stop  offset="0.5" style="stop-color:#FFFFFF"/>
				<stop  offset="1" style="stop-color:#FEFEFB"/>
			</linearGradient>
			
				<path id="path4923" fill="url(#path4923_1_)" stroke="#000000" stroke-width="3.273" stroke-linecap="round" stroke-linejoin="round" d="
				M917.191,327.716c1.585,1.472,1.88,2.516,3.083,6.444c1.317,4.302,13.414,66.806,18.669,92.32
				c-1.62,0.521-3.573,0.201-5.086-1.025l-122.2-99.079c-0.944-0.765-1.474-1.8-1.775-2.848c24.755-0.09,91.615-1.284,96.201-0.876
				c5.457,0.487,5.453,0.478,8.983,3.34C915.951,326.709,916.665,327.224,917.191,327.716L917.191,327.716z"/>
			
				<linearGradient id="path4993_1_" gradientUnits="userSpaceOnUse" x1="1556.4045" y1="375.3547" x2="1547.4182" y2="650.2912" gradientTransform="matrix(-1.5148 -1.2282 -1.2282 1.5148 3771.3694 1595.6731)">
				<stop  offset="0" style="stop-color:#EFEED1"/>
				<stop  offset="0.5" style="stop-color:#FFFFFF"/>
				<stop  offset="1" style="stop-color:#FEFEFB"/>
			</linearGradient>
			
				<path id="path4993" fill="url(#path4993_1_)" stroke="#000000" stroke-width="3.273" stroke-linecap="round" stroke-linejoin="round" d="
				M1009.448,332.217c2.293,1.858,2.771,5.092,1.063,7.201l-0.138,0.17c-12.072-0.117-93.274,2.408-98.257,2.023
				c-5.223-0.401-5.226-0.434-8.574-3.149c-3.347-2.714-3.294-2.642-4.768-7.671c-1.405-4.781-15.553-84.187-18.251-96.488
				l1.86-2.295c1.563-0.411,3.429-0.037,4.861,1.126l122.201,99.077L1009.448,332.217z"/>
		</g>
	</g>
</g>
<path id="path3169" fill="#333366" stroke="#000000" stroke-width="2.9633" d="M96.976,219.428
	c72.779,26.171-21.427,142.415,57.212,243.844c14.534,18.748-87.541,3.162-123.625-100.728
	c-35.096-101.032-1.714-162.679,66.416-143.117L96.976,219.428L96.976,219.428z"/>
<radialGradient id="path3193_1_" cx="20.6616" cy="303.5771" r="196.3286" fx="-142.0325" fy="193.6883" gradientTransform="matrix(1 0 0 1 0 -191)" gradientUnits="userSpaceOnUse">
	<stop  offset="0" style="stop-color:#FFFFFF"/>
	<stop  offset="1" style="stop-color:#333366"/>
</radialGradient>
<path id="path3193" fill="url(#path3193_1_)" stroke="#000000" stroke-width="2.9633" stroke-linecap="round" stroke-linejoin="round" d="
	M123.311,205.721c-20.255-6.973-41.181,11.473-45.181,21.451c20.441-5.223,29.831-6.695,35.123-2.09
	c-2.279,5.101-26.334,10.199-33.79,43.677c18.802-13.035,33.739-28.101,39.743-21.91c-4.359,7.615-9.378,21.931-5.996,36.125
	c10.803-14.257,21.842-29.315,31.983-29.721"/>
<path id="path3800" fill="#333366" stroke="#000000" stroke-width="3.0991" d="M500.062,219.938
	c-72.599,28.695,21.372,156.156-57.067,267.375c-14.499,20.559,87.32,3.47,123.317-110.442
	c35.007-110.78,1.709-178.378-66.251-156.926L500.062,219.938L500.062,219.938z"/>
<path id="path2413" fill="#333366" stroke="#000000" stroke-width="2.9633" stroke-linecap="round" stroke-linejoin="round" d="
	M473.312,205.721c20.254-6.973,41.181,11.473,45.181,21.451c-20.44-5.223-29.831-6.695-35.123-2.09
	c2.278,5.101,26.335,10.199,33.791,43.677c-18.803-13.035-33.739-28.101-39.743-21.91c4.359,7.615,9.379,21.931,5.996,36.125
	c-10.804-14.257-21.843-29.315-31.983-29.721"/>
<path id="path3200" fill-opacity="0.3137" d="M523.877,215.803c-0.624-0.001-1.258,0.034-1.891,0.052
	c24.522,21.847,34.9,72.404,22.357,142.715c-16.675,93.472-81.047,133.796-102.439,135.925
	c6.944,10.914,92.232-13.589,124.562-116.483c30.707-97.724,8.957-162.125-42.594-162.209H523.877z"/>
<path id="path3285_1_" fill="#777777" stroke="#000000" stroke-width="2.9633" stroke-linejoin="round" d="M316.102,88.841
	c39.439-30.367,125-10.451,125-10.451s-64.578-26.333-84.89-17.93c-13.116,5.426,1.365-14.082,1.365-14.082
	S331.541,51.441,316.102,88.841L316.102,88.841z"/>
</svg>
